<svg xmlns="http://www.w3.org/2000/svg" version="1.1" xmlns:xlink="http://www.w3.org/1999/xlink" xmlns:svgjs="http://svgjs.com/svgjs" width="1440" height="560" preserveAspectRatio="none" viewBox="0 0 1440 560"><g mask="url(&quot;#SvgjsMask1006&quot;)" fill="none"><path d="M-103.4 348.65L-103.4 348.65" stroke="#132e65" stroke-width="1.5"></path><path d="M-103.4 348.65L-71.01 530.71" stroke="#132e65" stroke-width="1.5"></path><path d="M-103.4 348.65L71.98 408.3" stroke="#132e65" stroke-width="1.5"></path><path d="M-103.4 348.65L82.3 552.83" stroke="#132e65" stroke-width="1.5"></path><path d="M-71.01 530.71L-71.01 530.71" stroke="#132e65" stroke-width="1.5"></path><path d="M-71.01 530.71L-45.62 672.38" stroke="#132e65" stroke-width="1.5"></path><path d="M-71.01 530.71L82.3 552.83" stroke="#132e65" stroke-width="1.5"></path><path d="M-71.01 530.71L71.98 408.3" stroke="#132e65" stroke-width="1.5"></path><path d="M-45.62 672.38L-45.62 672.38" stroke="#132e65" stroke-width="1.5"></path><path d="M-45.62 672.38L80.63 650.08" stroke="#132e65" stroke-width="1.5"></path><path d="M-45.62 672.38L82.3 552.83" stroke="#132e65" stroke-width="1.5"></path><path d="M-45.62 672.38L218.57 710.06" stroke="#132e65" stroke-width="1.5"></path><path d="M-45.62 672.38L71.98 408.3" stroke="#132e65" stroke-width="1.5"></path><path d="M-45.62 672.38L-103.4 348.65" stroke="#132e65" stroke-width="1.5"></path><path d="M71.98 408.3L71.98 408.3" stroke="#132e65" stroke-width="1.5"></path><path d="M71.98 408.3L82.3 552.83" stroke="#132e65" stroke-width="1.5"></path><path d="M71.98 408.3L212.23 346.41" stroke="#132e65" stroke-width="1.5"></path><path d="M82.3 552.83L82.3 552.83" stroke="#132e65" stroke-width="1.5"></path><path d="M82.3 552.83L80.63 650.08" stroke="#132e65" stroke-width="1.5"></path><path d="M80.63 650.08L80.63 650.08" stroke="#132e65" stroke-width="1.5"></path><path d="M80.63 650.08L218.57 710.06" stroke="#132e65" stroke-width="1.5"></path><path d="M80.63 650.08L-71.01 530.71" stroke="#132e65" stroke-width="1.5"></path><path d="M212.23 346.41L212.23 346.41" stroke="#132e65" stroke-width="1.5"></path><path d="M212.23 346.41L255.28 514.17" stroke="#132e65" stroke-width="1.5"></path><path d="M212.23 346.41L407.01 363.08" stroke="#132e65" stroke-width="1.5"></path><path d="M212.23 346.41L82.3 552.83" stroke="#132e65" stroke-width="1.5"></path><path d="M212.23 346.41L355.04 557.76" stroke="#132e65" stroke-width="1.5"></path><path d="M255.28 514.17L255.28 514.17" stroke="#132e65" stroke-width="1.5"></path><path d="M255.28 514.17L355.04 557.76" stroke="#132e65" stroke-width="1.5"></path><path d="M255.28 514.17L82.3 552.83" stroke="#132e65" stroke-width="1.5"></path><path d="M255.28 514.17L396.39 643.09" stroke="#132e65" stroke-width="1.5"></path><path d="M255.28 514.17L218.57 710.06" stroke="#132e65" stroke-width="1.5"></path><path d="M218.57 710.06L218.57 710.06" stroke="#132e65" stroke-width="1.5"></path><path d="M218.57 710.06L396.39 643.09" stroke="#132e65" stroke-width="1.5"></path><path d="M218.57 710.06L355.04 557.76" stroke="#132e65" stroke-width="1.5"></path><path d="M218.57 710.06L82.3 552.83" stroke="#132e65" stroke-width="1.5"></path><path d="M407.01 363.08L407.01 363.08" stroke="#132e65" stroke-width="1.5"></path><path d="M407.01 363.08L501.95 403.32" stroke="#132e65" stroke-width="1.5"></path><path d="M407.01 363.08L355.04 557.76" stroke="#132e65" stroke-width="1.5"></path><path d="M407.01 363.08L255.28 514.17" stroke="#132e65" stroke-width="1.5"></path><path d="M407.01 363.08L525.47 544.54" stroke="#132e65" stroke-width="1.5"></path><path d="M407.01 363.08L664.56 342.15" stroke="#132e65" stroke-width="1.5"></path><path d="M355.04 557.76L355.04 557.76" stroke="#132e65" stroke-width="1.5"></path><path d="M355.04 557.76L396.39 643.09" stroke="#132e65" stroke-width="1.5"></path><path d="M355.04 557.76L525.47 544.54" stroke="#132e65" stroke-width="1.5"></path><path d="M396.39 643.09L396.39 643.09" stroke="#132e65" stroke-width="1.5"></path><path d="M396.39 643.09L500.43 701.91" stroke="#132e65" stroke-width="1.5"></path><path d="M396.39 643.09L525.47 544.54" stroke="#132e65" stroke-width="1.5"></path><path d="M396.39 643.09L642.16 664.18" stroke="#132e65" stroke-width="1.5"></path><path d="M501.95 403.32L501.95 403.32" stroke="#132e65" stroke-width="1.5"></path><path d="M501.95 403.32L525.47 544.54" stroke="#132e65" stroke-width="1.5"></path><path d="M501.95 403.32L664.56 342.15" stroke="#132e65" stroke-width="1.5"></path><path d="M525.47 544.54L525.47 544.54" stroke="#132e65" stroke-width="1.5"></path><path d="M525.47 544.54L500.43 701.91" stroke="#132e65" stroke-width="1.5"></path><path d="M500.43 701.91L500.43 701.91" stroke="#132e65" stroke-width="1.5"></path><path d="M500.43 701.91L642.16 664.18" stroke="#132e65" stroke-width="1.5"></path><path d="M708.06 199.03L708.06 199.03" stroke="#132e65" stroke-width="1.5"></path><path d="M708.06 199.03L816.18 255.47" stroke="#132e65" stroke-width="1.5"></path><path d="M708.06 199.03L664.56 342.15" stroke="#132e65" stroke-width="1.5"></path><path d="M708.06 199.03L945.01 206.04" stroke="#132e65" stroke-width="1.5"></path><path d="M708.06 199.03L848.63 398.44" stroke="#132e65" stroke-width="1.5"></path><path d="M708.06 199.03L950.79 90.46" stroke="#132e65" stroke-width="1.5"></path><path d="M664.56 342.15L664.56 342.15" stroke="#132e65" stroke-width="1.5"></path><path d="M664.56 342.15L816.18 255.47" stroke="#132e65" stroke-width="1.5"></path><path d="M664.56 342.15L710.28 519.41" stroke="#132e65" stroke-width="1.5"></path><path d="M664.56 342.15L848.63 398.44" stroke="#132e65" stroke-width="1.5"></path><path d="M664.56 342.15L525.47 544.54" stroke="#132e65" stroke-width="1.5"></path><path d="M710.28 519.41L710.28 519.41" stroke="#132e65" stroke-width="1.5"></path><path d="M710.28 519.41L831.05 558.21" stroke="#132e65" stroke-width="1.5"></path><path d="M710.28 519.41L642.16 664.18" stroke="#132e65" stroke-width="1.5"></path><path d="M642.16 664.18L642.16 664.18" stroke="#132e65" stroke-width="1.5"></path><path d="M816.18 255.47L816.18 255.47" stroke="#132e65" stroke-width="1.5"></path><path d="M816.18 255.47L945.01 206.04" stroke="#132e65" stroke-width="1.5"></path><path d="M848.63 398.44L848.63 398.44" stroke="#132e65" stroke-width="1.5"></path><path d="M848.63 398.44L963.4 407.84" stroke="#132e65" stroke-width="1.5"></path><path d="M831.05 558.21L831.05 558.21" stroke="#132e65" stroke-width="1.5"></path><path d="M831.05 558.21L798.02 692.44" stroke="#132e65" stroke-width="1.5"></path><path d="M831.05 558.21L848.63 398.44" stroke="#132e65" stroke-width="1.5"></path><path d="M831.05 558.21L983.54 496.92" stroke="#132e65" stroke-width="1.5"></path><path d="M798.02 692.44L798.02 692.44" stroke="#132e65" stroke-width="1.5"></path><path d="M798.02 692.44L642.16 664.18" stroke="#132e65" stroke-width="1.5"></path><path d="M798.02 692.44L710.28 519.41" stroke="#132e65" stroke-width="1.5"></path><path d="M798.02 692.44L993.56 703.97" stroke="#132e65" stroke-width="1.5"></path><path d="M798.02 692.44L983.54 496.92" stroke="#132e65" stroke-width="1.5"></path><path d="M1000.39 -57.37L1000.39 -57.37" stroke="#132e65" stroke-width="1.5"></path><path d="M1000.39 -57.37L1116.08 41.08" stroke="#132e65" stroke-width="1.5"></path><path d="M1000.39 -57.37L950.79 90.46" stroke="#132e65" stroke-width="1.5"></path><path d="M1000.39 -57.37L1154.56 -87.47" stroke="#132e65" stroke-width="1.5"></path><path d="M1000.39 -57.37L945.01 206.04" stroke="#132e65" stroke-width="1.5"></path><path d="M1000.39 -57.37L1238.76 81.55" stroke="#132e65" stroke-width="1.5"></path><path d="M1000.39 -57.37L1286.77 -50.85" stroke="#132e65" stroke-width="1.5"></path><path d="M950.79 90.46L950.79 90.46" stroke="#132e65" stroke-width="1.5"></path><path d="M950.79 90.46L945.01 206.04" stroke="#132e65" stroke-width="1.5"></path><path d="M950.79 90.46L1116.08 41.08" stroke="#132e65" stroke-width="1.5"></path><path d="M945.01 206.04L945.01 206.04" stroke="#132e65" stroke-width="1.5"></path><path d="M945.01 206.04L1102.35 226.49" stroke="#132e65" stroke-width="1.5"></path><path d="M945.01 206.04L963.4 407.84" stroke="#132e65" stroke-width="1.5"></path><path d="M963.4 407.84L963.4 407.84" stroke="#132e65" stroke-width="1.5"></path><path d="M963.4 407.84L983.54 496.92" stroke="#132e65" stroke-width="1.5"></path><path d="M963.4 407.84L1144.8 398.36" stroke="#132e65" stroke-width="1.5"></path><path d="M963.4 407.84L831.05 558.21" stroke="#132e65" stroke-width="1.5"></path><path d="M963.4 407.84L816.18 255.47" stroke="#132e65" stroke-width="1.5"></path><path d="M983.54 496.92L983.54 496.92" stroke="#132e65" stroke-width="1.5"></path><path d="M983.54 496.92L848.63 398.44" stroke="#132e65" stroke-width="1.5"></path><path d="M983.54 496.92L1147.55 538.66" stroke="#132e65" stroke-width="1.5"></path><path d="M983.54 496.92L1144.8 398.36" stroke="#132e65" stroke-width="1.5"></path><path d="M993.56 703.97L993.56 703.97" stroke="#132e65" stroke-width="1.5"></path><path d="M993.56 703.97L1098.9 649.56" stroke="#132e65" stroke-width="1.5"></path><path d="M1154.56 -87.47L1154.56 -87.47" stroke="#132e65" stroke-width="1.5"></path><path d="M1154.56 -87.47L1116.08 41.08" stroke="#132e65" stroke-width="1.5"></path><path d="M1154.56 -87.47L1286.77 -50.85" stroke="#132e65" stroke-width="1.5"></path><path d="M1116.08 41.08L1116.08 41.08" stroke="#132e65" stroke-width="1.5"></path><path d="M1116.08 41.08L1238.76 81.55" stroke="#132e65" stroke-width="1.5"></path><path d="M1102.35 226.49L1102.35 226.49" stroke="#132e65" stroke-width="1.5"></path><path d="M1102.35 226.49L1144.8 398.36" stroke="#132e65" stroke-width="1.5"></path><path d="M1144.8 398.36L1144.8 398.36" stroke="#132e65" stroke-width="1.5"></path><path d="M1144.8 398.36L1147.55 538.66" stroke="#132e65" stroke-width="1.5"></path><path d="M1144.8 398.36L1294.04 363.31" stroke="#132e65" stroke-width="1.5"></path><path d="M1144.8 398.36L1238.57 538.42" stroke="#132e65" stroke-width="1.5"></path><path d="M1147.55 538.66L1147.55 538.66" stroke="#132e65" stroke-width="1.5"></path><path d="M1147.55 538.66L1238.57 538.42" stroke="#132e65" stroke-width="1.5"></path><path d="M1147.55 538.66L1098.9 649.56" stroke="#132e65" stroke-width="1.5"></path><path d="M1098.9 649.56L1098.9 649.56" stroke="#132e65" stroke-width="1.5"></path><path d="M1098.9 649.56L1256.71 712" stroke="#132e65" stroke-width="1.5"></path><path d="M1098.9 649.56L1238.57 538.42" stroke="#132e65" stroke-width="1.5"></path><path d="M1098.9 649.56L983.54 496.92" stroke="#132e65" stroke-width="1.5"></path><path d="M1098.9 649.56L1144.8 398.36" stroke="#132e65" stroke-width="1.5"></path><path d="M1286.77 -50.85L1286.77 -50.85" stroke="#132e65" stroke-width="1.5"></path><path d="M1286.77 -50.85L1416.48 -61.92" stroke="#132e65" stroke-width="1.5"></path><path d="M1238.76 81.55L1238.76 81.55" stroke="#132e65" stroke-width="1.5"></path><path d="M1238.76 81.55L1286.77 -50.85" stroke="#132e65" stroke-width="1.5"></path><path d="M1238.76 81.55L1400.32 42.13" stroke="#132e65" stroke-width="1.5"></path><path d="M1306.96 250.7L1306.96 250.7" stroke="#132e65" stroke-width="1.5"></path><path d="M1306.96 250.7L1405.08 196.46" stroke="#132e65" stroke-width="1.5"></path><path d="M1306.96 250.7L1294.04 363.31" stroke="#132e65" stroke-width="1.5"></path><path d="M1306.96 250.7L1401.69 381.49" stroke="#132e65" stroke-width="1.5"></path><path d="M1306.96 250.7L1238.76 81.55" stroke="#132e65" stroke-width="1.5"></path><path d="M1306.96 250.7L1102.35 226.49" stroke="#132e65" stroke-width="1.5"></path><path d="M1294.04 363.31L1294.04 363.31" stroke="#132e65" stroke-width="1.5"></path><path d="M1294.04 363.31L1401.69 381.49" stroke="#132e65" stroke-width="1.5"></path><path d="M1294.04 363.31L1416.93 496.1" stroke="#132e65" stroke-width="1.5"></path><path d="M1294.04 363.31L1238.57 538.42" stroke="#132e65" stroke-width="1.5"></path><path d="M1238.57 538.42L1238.57 538.42" stroke="#132e65" stroke-width="1.5"></path><path d="M1238.57 538.42L1256.71 712" stroke="#132e65" stroke-width="1.5"></path><path d="M1238.57 538.42L1416.93 496.1" stroke="#132e65" stroke-width="1.5"></path><path d="M1256.71 712L1256.71 712" stroke="#132e65" stroke-width="1.5"></path><path d="M1416.48 -61.92L1416.48 -61.92" stroke="#132e65" stroke-width="1.5"></path><path d="M1416.48 -61.92L1400.32 42.13" stroke="#132e65" stroke-width="1.5"></path><path d="M1416.48 -61.92L1577.7 70.58" stroke="#132e65" stroke-width="1.5"></path><path d="M1416.48 -61.92L1238.76 81.55" stroke="#132e65" stroke-width="1.5"></path><path d="M1400.32 42.13L1400.32 42.13" stroke="#132e65" stroke-width="1.5"></path><path d="M1400.32 42.13L1286.77 -50.85" stroke="#132e65" stroke-width="1.5"></path><path d="M1400.32 42.13L1405.08 196.46" stroke="#132e65" stroke-width="1.5"></path><path d="M1405.08 196.46L1405.08 196.46" stroke="#132e65" stroke-width="1.5"></path><path d="M1405.08 196.46L1401.69 381.49" stroke="#132e65" stroke-width="1.5"></path><path d="M1405.08 196.46L1591.42 251.04" stroke="#132e65" stroke-width="1.5"></path><path d="M1405.08 196.46L1294.04 363.31" stroke="#132e65" stroke-width="1.5"></path><path d="M1401.69 381.49L1401.69 381.49" stroke="#132e65" stroke-width="1.5"></path><path d="M1401.69 381.49L1416.93 496.1" stroke="#132e65" stroke-width="1.5"></path><path d="M1401.69 381.49L1594.54 346.44" stroke="#132e65" stroke-width="1.5"></path><path d="M1401.69 381.49L1238.57 538.42" stroke="#132e65" stroke-width="1.5"></path><path d="M1416.93 496.1L1416.93 496.1" stroke="#132e65" stroke-width="1.5"></path><path d="M1416.93 496.1L1458.85 641.85" stroke="#132e65" stroke-width="1.5"></path><path d="M1458.85 641.85L1458.85 641.85" stroke="#132e65" stroke-width="1.5"></path><path d="M1458.85 641.85L1586.08 650.93" stroke="#132e65" stroke-width="1.5"></path><path d="M1577.7 70.58L1577.7 70.58" stroke="#132e65" stroke-width="1.5"></path><path d="M1577.7 70.58L1400.32 42.13" stroke="#132e65" stroke-width="1.5"></path><path d="M1577.7 70.58L1591.42 251.04" stroke="#132e65" stroke-width="1.5"></path><path d="M1577.7 70.58L1405.08 196.46" stroke="#132e65" stroke-width="1.5"></path><path d="M1577.7 70.58L1594.54 346.44" stroke="#132e65" stroke-width="1.5"></path><path d="M1591.42 251.04L1591.42 251.04" stroke="#132e65" stroke-width="1.5"></path><path d="M1591.42 251.04L1594.54 346.44" stroke="#132e65" stroke-width="1.5"></path><path d="M1591.42 251.04L1401.69 381.49" stroke="#132e65" stroke-width="1.5"></path><path d="M1591.42 251.04L1609.85 523.17" stroke="#132e65" stroke-width="1.5"></path><path d="M1591.42 251.04L1400.32 42.13" stroke="#132e65" stroke-width="1.5"></path><path d="M1594.54 346.44L1594.54 346.44" stroke="#132e65" stroke-width="1.5"></path><path d="M1594.54 346.44L1609.85 523.17" stroke="#132e65" stroke-width="1.5"></path><path d="M1594.54 346.44L1416.93 496.1" stroke="#132e65" stroke-width="1.5"></path><path d="M1609.85 523.17L1609.85 523.17" stroke="#132e65" stroke-width="1.5"></path><path d="M1609.85 523.17L1586.08 650.93" stroke="#132e65" stroke-width="1.5"></path><path d="M1609.85 523.17L1458.85 641.85" stroke="#132e65" stroke-width="1.5"></path><path d="M1586.08 650.93L1586.08 650.93" stroke="#132e65" stroke-width="1.5"></path><path d="M1586.08 650.93L1416.93 496.1" stroke="#132e65" stroke-width="1.5"></path><circle r="5" cx="-103.4" cy="348.65" fill="#132e65"></circle><circle r="5" cx="-71.01" cy="530.71" fill="#132e65"></circle><circle r="5" cx="-45.62" cy="672.38" fill="#132e65"></circle><circle r="5" cx="71.98" cy="408.3" fill="#132e65"></circle><circle r="5" cx="82.3" cy="552.83" fill="#132e65"></circle><circle r="5" cx="80.63" cy="650.08" fill="#132e65"></circle><circle r="5" cx="212.23" cy="346.41" fill="#132e65"></circle><circle r="5" cx="255.28" cy="514.17" fill="#132e65"></circle><circle r="5" cx="218.57" cy="710.06" fill="#132e65"></circle><circle r="5" cx="407.01" cy="363.08" fill="#132e65"></circle><circle r="5" cx="355.04" cy="557.76" fill="#132e65"></circle><circle r="5" cx="396.39" cy="643.09" fill="#132e65"></circle><circle r="5" cx="501.95" cy="403.32" fill="#132e65"></circle><circle r="5" cx="525.47" cy="544.54" fill="#132e65"></circle><circle r="5" cx="500.43" cy="701.91" fill="#132e65"></circle><circle r="5" cx="708.06" cy="199.03" fill="#132e65"></circle><circle r="5" cx="664.56" cy="342.15" fill="#132e65"></circle><circle r="5" cx="710.28" cy="519.41" fill="#132e65"></circle><circle r="5" cx="642.16" cy="664.18" fill="#132e65"></circle><circle r="5" cx="816.18" cy="255.47" fill="#132e65"></circle><circle r="5" cx="848.63" cy="398.44" fill="#132e65"></circle><circle r="5" cx="831.05" cy="558.21" fill="#132e65"></circle><circle r="5" cx="798.02" cy="692.44" fill="#132e65"></circle><circle r="5" cx="1000.39" cy="-57.37" fill="#132e65"></circle><circle r="5" cx="950.79" cy="90.46" fill="#132e65"></circle><circle r="5" cx="945.01" cy="206.04" fill="#132e65"></circle><circle r="5" cx="963.4" cy="407.84" fill="#132e65"></circle><circle r="5" cx="983.54" cy="496.92" fill="#132e65"></circle><circle r="5" cx="993.56" cy="703.97" fill="#132e65"></circle><circle r="5" cx="1154.56" cy="-87.47" fill="#132e65"></circle><circle r="5" cx="1116.08" cy="41.08" fill="#132e65"></circle><circle r="5" cx="1102.35" cy="226.49" fill="#132e65"></circle><circle r="5" cx="1144.8" cy="398.36" fill="#132e65"></circle><circle r="5" cx="1147.55" cy="538.66" fill="#132e65"></circle><circle r="5" cx="1098.9" cy="649.56" fill="#132e65"></circle><circle r="5" cx="1286.77" cy="-50.85" fill="#132e65"></circle><circle r="5" cx="1238.76" cy="81.55" fill="#132e65"></circle><circle r="5" cx="1306.96" cy="250.7" fill="#132e65"></circle><circle r="5" cx="1294.04" cy="363.31" fill="#132e65"></circle><circle r="5" cx="1238.57" cy="538.42" fill="#132e65"></circle><circle r="5" cx="1256.71" cy="712" fill="#132e65"></circle><circle r="5" cx="1416.48" cy="-61.92" fill="#132e65"></circle><circle r="5" cx="1400.32" cy="42.13" fill="#132e65"></circle><circle r="5" cx="1405.08" cy="196.46" fill="#132e65"></circle><circle r="5" cx="1401.69" cy="381.49" fill="#132e65"></circle><circle r="5" cx="1416.93" cy="496.1" fill="#132e65"></circle><circle r="5" cx="1458.85" cy="641.85" fill="#132e65"></circle><circle r="5" cx="1577.7" cy="70.58" fill="#132e65"></circle><circle r="5" cx="1591.42" cy="251.04" fill="#132e65"></circle><circle r="5" cx="1594.54" cy="346.44" fill="#132e65"></circle><circle r="5" cx="1609.85" cy="523.17" fill="#132e65"></circle><circle r="5" cx="1586.08" cy="650.93" fill="#132e65"></circle><path d="M1098.17 553.43L1098.17 553.43" stroke="hsl(228.5, 77.2%, 51.5%)" stroke-width="1.5"></path><path d="M1098.17 553.43L1135.97 642.66" stroke="hsl(228.5, 77.2%, 51.5%)" stroke-width="1.5"></path><path d="M1098.17 553.43L955.47 560.13" stroke="hsl(228.5, 77.2%, 51.5%)" stroke-width="1.5"></path><path d="M1310.71 254.7L1310.71 254.7" stroke="hsl(228.5, 77.2%, 51.5%)" stroke-width="1.5"></path><path d="M1310.71 254.7L1392.03 212.66" stroke="hsl(228.5, 77.2%, 51.5%)" stroke-width="1.5"></path><path d="M1310.71 254.7L1248.68 394.89" stroke="hsl(228.5, 77.2%, 51.5%)" stroke-width="1.5"></path><path d="M1310.71 254.7L1130.73 228.95" stroke="hsl(228.5, 77.2%, 51.5%)" stroke-width="1.5"></path><path d="M1310.71 254.7L1453.43 373" stroke="hsl(228.5, 77.2%, 51.5%)" stroke-width="1.5"></path><path d="M1297.16 701.29L1297.16 701.29" stroke="hsl(228.5, 77.2%, 51.5%)" stroke-width="1.5"></path><path d="M1297.16 701.29L1280.78 550.84" stroke="hsl(228.5, 77.2%, 51.5%)" stroke-width="1.5"></path><path d="M1297.16 701.29L1135.97 642.66" stroke="hsl(228.5, 77.2%, 51.5%)" stroke-width="1.5"></path><path d="M1297.16 701.29L1398.83 500.42" stroke="hsl(228.5, 77.2%, 51.5%)" stroke-width="1.5"></path><path d="M1297.16 701.29L1098.17 553.43" stroke="hsl(228.5, 77.2%, 51.5%)" stroke-width="1.5"></path><path d="M1297.16 701.29L1539.35 639.53" stroke="hsl(228.5, 77.2%, 51.5%)" stroke-width="1.5"></path><path d="M1297.16 701.29L989.73 689.59" stroke="hsl(228.5, 77.2%, 51.5%)" stroke-width="1.5"></path><path d="M1398.83 500.42L1398.83 500.42" stroke="hsl(228.5, 77.2%, 51.5%)" stroke-width="1.5"></path><path d="M1398.83 500.42L1280.78 550.84" stroke="hsl(228.5, 77.2%, 51.5%)" stroke-width="1.5"></path><path d="M1398.83 500.42L1453.43 373" stroke="hsl(228.5, 77.2%, 51.5%)" stroke-width="1.5"></path><path d="M1550.07 98.14L1550.07 98.14" stroke="hsl(228.5, 77.2%, 51.5%)" stroke-width="1.5"></path><path d="M1550.07 98.14L1556.83 246.57" stroke="hsl(228.5, 77.2%, 51.5%)" stroke-width="1.5"></path><path d="M1550.07 98.14L1392.03 212.66" stroke="hsl(228.5, 77.2%, 51.5%)" stroke-width="1.5"></path><path d="M1550.07 98.14L1547 -103.93" stroke="hsl(228.5, 77.2%, 51.5%)" stroke-width="1.5"></path><path d="M1556.83 246.57L1556.83 246.57" stroke="hsl(228.5, 77.2%, 51.5%)" stroke-width="1.5"></path><path d="M1556.83 246.57L1596.66 347.91" stroke="hsl(228.5, 77.2%, 51.5%)" stroke-width="1.5"></path><path d="M-70.58 514.06L-70.58 514.06" stroke="hsl(228.5, 77.2%, 51.5%)" stroke-width="1.5"></path><path d="M-70.58 514.06L68.31 536.94" stroke="hsl(228.5, 77.2%, 51.5%)" stroke-width="1.5"></path><path d="M68.31 536.94L68.31 536.94" stroke="hsl(228.5, 77.2%, 51.5%)" stroke-width="1.5"></path><path d="M68.31 536.94L47.48 666.22" stroke="hsl(228.5, 77.2%, 51.5%)" stroke-width="1.5"></path><path d="M68.31 536.94L201.49 498.22" stroke="hsl(228.5, 77.2%, 51.5%)" stroke-width="1.5"></path><path d="M47.48 666.22L47.48 666.22" stroke="hsl(228.5, 77.2%, 51.5%)" stroke-width="1.5"></path><path d="M47.48 666.22L-70.58 514.06" stroke="hsl(228.5, 77.2%, 51.5%)" stroke-width="1.5"></path><path d="M47.48 666.22L254.28 656.14" stroke="hsl(228.5, 77.2%, 51.5%)" stroke-width="1.5"></path><path d="M201.49 498.22L201.49 498.22" stroke="hsl(228.5, 77.2%, 51.5%)" stroke-width="1.5"></path><path d="M254.28 656.14L254.28 656.14" stroke="hsl(228.5, 77.2%, 51.5%)" stroke-width="1.5"></path><path d="M254.28 656.14L373.91 681.84" stroke="hsl(228.5, 77.2%, 51.5%)" stroke-width="1.5"></path><path d="M254.28 656.14L201.49 498.22" stroke="hsl(228.5, 77.2%, 51.5%)" stroke-width="1.5"></path><path d="M254.28 656.14L356.78 518.3" stroke="hsl(228.5, 77.2%, 51.5%)" stroke-width="1.5"></path><path d="M356.78 518.3L356.78 518.3" stroke="hsl(228.5, 77.2%, 51.5%)" stroke-width="1.5"></path><path d="M356.78 518.3L201.49 498.22" stroke="hsl(228.5, 77.2%, 51.5%)" stroke-width="1.5"></path><path d="M356.78 518.3L517.12 508.01" stroke="hsl(228.5, 77.2%, 51.5%)" stroke-width="1.5"></path><path d="M356.78 518.3L373.91 681.84" stroke="hsl(228.5, 77.2%, 51.5%)" stroke-width="1.5"></path><path d="M356.78 518.3L534.32 685.09" stroke="hsl(228.5, 77.2%, 51.5%)" stroke-width="1.5"></path><path d="M373.91 681.84L373.91 681.84" stroke="hsl(228.5, 77.2%, 51.5%)" stroke-width="1.5"></path><path d="M373.91 681.84L534.32 685.09" stroke="hsl(228.5, 77.2%, 51.5%)" stroke-width="1.5"></path><path d="M517.12 508.01L517.12 508.01" stroke="hsl(228.5, 77.2%, 51.5%)" stroke-width="1.5"></path><path d="M517.12 508.01L640.19 555.35" stroke="hsl(228.5, 77.2%, 51.5%)" stroke-width="1.5"></path><path d="M517.12 508.01L534.32 685.09" stroke="hsl(228.5, 77.2%, 51.5%)" stroke-width="1.5"></path><path d="M517.12 508.01L373.91 681.84" stroke="hsl(228.5, 77.2%, 51.5%)" stroke-width="1.5"></path><path d="M517.12 508.01L712.32 699.67" stroke="hsl(228.5, 77.2%, 51.5%)" stroke-width="1.5"></path><path d="M517.12 508.01L795 514.69" stroke="hsl(228.5, 77.2%, 51.5%)" stroke-width="1.5"></path><path d="M534.32 685.09L534.32 685.09" stroke="hsl(228.5, 77.2%, 51.5%)" stroke-width="1.5"></path><path d="M534.32 685.09L640.19 555.35" stroke="hsl(228.5, 77.2%, 51.5%)" stroke-width="1.5"></path><path d="M534.32 685.09L712.32 699.67" stroke="hsl(228.5, 77.2%, 51.5%)" stroke-width="1.5"></path><path d="M640.19 555.35L640.19 555.35" stroke="hsl(228.5, 77.2%, 51.5%)" stroke-width="1.5"></path><path d="M640.19 555.35L795 514.69" stroke="hsl(228.5, 77.2%, 51.5%)" stroke-width="1.5"></path><path d="M640.19 555.35L712.32 699.67" stroke="hsl(228.5, 77.2%, 51.5%)" stroke-width="1.5"></path><path d="M712.32 699.67L712.32 699.67" stroke="hsl(228.5, 77.2%, 51.5%)" stroke-width="1.5"></path><path d="M712.32 699.67L840.29 709.28" stroke="hsl(228.5, 77.2%, 51.5%)" stroke-width="1.5"></path><path d="M712.32 699.67L795 514.69" stroke="hsl(228.5, 77.2%, 51.5%)" stroke-width="1.5"></path><path d="M853.16 349.08L853.16 349.08" stroke="hsl(228.5, 77.2%, 51.5%)" stroke-width="1.5"></path><path d="M853.16 349.08L970.31 352.1" stroke="hsl(228.5, 77.2%, 51.5%)" stroke-width="1.5"></path><path d="M853.16 349.08L795 514.69" stroke="hsl(228.5, 77.2%, 51.5%)" stroke-width="1.5"></path><path d="M795 514.69L795 514.69" stroke="hsl(228.5, 77.2%, 51.5%)" stroke-width="1.5"></path><path d="M795 514.69L955.47 560.13" stroke="hsl(228.5, 77.2%, 51.5%)" stroke-width="1.5"></path><path d="M840.29 709.28L840.29 709.28" stroke="hsl(228.5, 77.2%, 51.5%)" stroke-width="1.5"></path><path d="M840.29 709.28L989.73 689.59" stroke="hsl(228.5, 77.2%, 51.5%)" stroke-width="1.5"></path><path d="M840.29 709.28L955.47 560.13" stroke="hsl(228.5, 77.2%, 51.5%)" stroke-width="1.5"></path><path d="M840.29 709.28L795 514.69" stroke="hsl(228.5, 77.2%, 51.5%)" stroke-width="1.5"></path><path d="M840.29 709.28L640.19 555.35" stroke="hsl(228.5, 77.2%, 51.5%)" stroke-width="1.5"></path><path d="M970.31 352.1L970.31 352.1" stroke="hsl(228.5, 77.2%, 51.5%)" stroke-width="1.5"></path><path d="M970.31 352.1L1130.73 228.95" stroke="hsl(228.5, 77.2%, 51.5%)" stroke-width="1.5"></path><path d="M970.31 352.1L955.47 560.13" stroke="hsl(228.5, 77.2%, 51.5%)" stroke-width="1.5"></path><path d="M970.31 352.1L1098.17 553.43" stroke="hsl(228.5, 77.2%, 51.5%)" stroke-width="1.5"></path><path d="M955.47 560.13L955.47 560.13" stroke="hsl(228.5, 77.2%, 51.5%)" stroke-width="1.5"></path><path d="M955.47 560.13L989.73 689.59" stroke="hsl(228.5, 77.2%, 51.5%)" stroke-width="1.5"></path><path d="M989.73 689.59L989.73 689.59" stroke="hsl(228.5, 77.2%, 51.5%)" stroke-width="1.5"></path><path d="M989.73 689.59L1135.97 642.66" stroke="hsl(228.5, 77.2%, 51.5%)" stroke-width="1.5"></path><path d="M989.73 689.59L1098.17 553.43" stroke="hsl(228.5, 77.2%, 51.5%)" stroke-width="1.5"></path><path d="M1154.51 64.36L1154.51 64.36" stroke="hsl(228.5, 77.2%, 51.5%)" stroke-width="1.5"></path><path d="M1154.51 64.36L1276.61 51.36" stroke="hsl(228.5, 77.2%, 51.5%)" stroke-width="1.5"></path><path d="M1154.51 64.36L1130.73 228.95" stroke="hsl(228.5, 77.2%, 51.5%)" stroke-width="1.5"></path><path d="M1130.73 228.95L1130.73 228.95" stroke="hsl(228.5, 77.2%, 51.5%)" stroke-width="1.5"></path><path d="M1135.97 642.66L1135.97 642.66" stroke="hsl(228.5, 77.2%, 51.5%)" stroke-width="1.5"></path><path d="M1135.97 642.66L1280.78 550.84" stroke="hsl(228.5, 77.2%, 51.5%)" stroke-width="1.5"></path><path d="M1276.61 51.36L1276.61 51.36" stroke="hsl(228.5, 77.2%, 51.5%)" stroke-width="1.5"></path><path d="M1276.61 51.36L1388.26 -70.71" stroke="hsl(228.5, 77.2%, 51.5%)" stroke-width="1.5"></path><path d="M1248.68 394.89L1248.68 394.89" stroke="hsl(228.5, 77.2%, 51.5%)" stroke-width="1.5"></path><path d="M1248.68 394.89L1280.78 550.84" stroke="hsl(228.5, 77.2%, 51.5%)" stroke-width="1.5"></path><path d="M1248.68 394.89L1398.83 500.42" stroke="hsl(228.5, 77.2%, 51.5%)" stroke-width="1.5"></path><path d="M1248.68 394.89L1130.73 228.95" stroke="hsl(228.5, 77.2%, 51.5%)" stroke-width="1.5"></path><path d="M1248.68 394.89L1453.43 373" stroke="hsl(228.5, 77.2%, 51.5%)" stroke-width="1.5"></path><path d="M1280.78 550.84L1280.78 550.84" stroke="hsl(228.5, 77.2%, 51.5%)" stroke-width="1.5"></path><path d="M1280.78 550.84L1098.17 553.43" stroke="hsl(228.5, 77.2%, 51.5%)" stroke-width="1.5"></path><path d="M1280.78 550.84L1453.43 373" stroke="hsl(228.5, 77.2%, 51.5%)" stroke-width="1.5"></path><path d="M1388.26 -70.71L1388.26 -70.71" stroke="hsl(228.5, 77.2%, 51.5%)" stroke-width="1.5"></path><path d="M1388.26 -70.71L1547 -103.93" stroke="hsl(228.5, 77.2%, 51.5%)" stroke-width="1.5"></path><path d="M1392.03 212.66L1392.03 212.66" stroke="hsl(228.5, 77.2%, 51.5%)" stroke-width="1.5"></path><path d="M1392.03 212.66L1556.83 246.57" stroke="hsl(228.5, 77.2%, 51.5%)" stroke-width="1.5"></path><path d="M1392.03 212.66L1453.43 373" stroke="hsl(228.5, 77.2%, 51.5%)" stroke-width="1.5"></path><path d="M1392.03 212.66L1276.61 51.36" stroke="hsl(228.5, 77.2%, 51.5%)" stroke-width="1.5"></path><path d="M1453.43 373L1453.43 373" stroke="hsl(228.5, 77.2%, 51.5%)" stroke-width="1.5"></path><path d="M1453.43 373L1596.66 347.91" stroke="hsl(228.5, 77.2%, 51.5%)" stroke-width="1.5"></path><path d="M1547 -103.93L1547 -103.93" stroke="hsl(228.5, 77.2%, 51.5%)" stroke-width="1.5"></path><path d="M1547 -103.93L1276.61 51.36" stroke="hsl(228.5, 77.2%, 51.5%)" stroke-width="1.5"></path><path d="M1547 -103.93L1556.83 246.57" stroke="hsl(228.5, 77.2%, 51.5%)" stroke-width="1.5"></path><path d="M1547 -103.93L1392.03 212.66" stroke="hsl(228.5, 77.2%, 51.5%)" stroke-width="1.5"></path><path d="M1596.66 347.91L1596.66 347.91" stroke="hsl(228.5, 77.2%, 51.5%)" stroke-width="1.5"></path><path d="M1596.66 347.91L1568.29 525.21" stroke="hsl(228.5, 77.2%, 51.5%)" stroke-width="1.5"></path><path d="M1596.66 347.91L1392.03 212.66" stroke="hsl(228.5, 77.2%, 51.5%)" stroke-width="1.5"></path><path d="M1568.29 525.21L1568.29 525.21" stroke="hsl(228.5, 77.2%, 51.5%)" stroke-width="1.5"></path><path d="M1568.29 525.21L1539.35 639.53" stroke="hsl(228.5, 77.2%, 51.5%)" stroke-width="1.5"></path><path d="M1568.29 525.21L1398.83 500.42" stroke="hsl(228.5, 77.2%, 51.5%)" stroke-width="1.5"></path><path d="M1568.29 525.21L1453.43 373" stroke="hsl(228.5, 77.2%, 51.5%)" stroke-width="1.5"></path><path d="M1568.29 525.21L1556.83 246.57" stroke="hsl(228.5, 77.2%, 51.5%)" stroke-width="1.5"></path><path d="M1568.29 525.21L1280.78 550.84" stroke="hsl(228.5, 77.2%, 51.5%)" stroke-width="1.5"></path><path d="M1539.35 639.53L1539.35 639.53" stroke="hsl(228.5, 77.2%, 51.5%)" stroke-width="1.5"></path><path d="M1539.35 639.53L1398.83 500.42" stroke="hsl(228.5, 77.2%, 51.5%)" stroke-width="1.5"></path><path d="M1539.35 639.53L1280.78 550.84" stroke="hsl(228.5, 77.2%, 51.5%)" stroke-width="1.5"></path><path d="M1539.35 639.53L1453.43 373" stroke="hsl(228.5, 77.2%, 51.5%)" stroke-width="1.5"></path><circle r="25" cx="1098.17" cy="553.43" fill="url(#SvgjsRadialGradient1007)"></circle><circle r="25" cx="1310.71" cy="254.7" fill="url(#SvgjsRadialGradient1007)"></circle><circle r="25" cx="1297.16" cy="701.29" fill="url(#SvgjsRadialGradient1007)"></circle><circle r="25" cx="1398.83" cy="500.42" fill="url(#SvgjsRadialGradient1007)"></circle><circle r="25" cx="1550.07" cy="98.14" fill="url(#SvgjsRadialGradient1007)"></circle><circle r="25" cx="1556.83" cy="246.57" fill="url(#SvgjsRadialGradient1007)"></circle><circle r="5" cx="-70.58" cy="514.06" fill="#8b9ad9"></circle><circle r="5" cx="68.31" cy="536.94" fill="#8b9ad9"></circle><circle r="5" cx="47.48" cy="666.22" fill="#8b9ad9"></circle><circle r="5" cx="201.49" cy="498.22" fill="#8b9ad9"></circle><circle r="5" cx="254.28" cy="656.14" fill="#8b9ad9"></circle><circle r="5" cx="356.78" cy="518.3" fill="#8b9ad9"></circle><circle r="5" cx="373.91" cy="681.84" fill="#8b9ad9"></circle><circle r="5" cx="517.12" cy="508.01" fill="#8b9ad9"></circle><circle r="5" cx="534.32" cy="685.09" fill="#8b9ad9"></circle><circle r="5" cx="640.19" cy="555.35" fill="#8b9ad9"></circle><circle r="5" cx="712.32" cy="699.67" fill="#8b9ad9"></circle><circle r="5" cx="853.16" cy="349.08" fill="#8b9ad9"></circle><circle r="5" cx="795" cy="514.69" fill="#8b9ad9"></circle><circle r="5" cx="840.29" cy="709.28" fill="#8b9ad9"></circle><circle r="5" cx="970.31" cy="352.1" fill="#8b9ad9"></circle><circle r="5" cx="955.47" cy="560.13" fill="#8b9ad9"></circle><circle r="5" cx="989.73" cy="689.59" fill="#8b9ad9"></circle><circle r="5" cx="1154.51" cy="64.36" fill="#8b9ad9"></circle><circle r="5" cx="1130.73" cy="228.95" fill="#8b9ad9"></circle><circle r="5" cx="1135.97" cy="642.66" fill="#8b9ad9"></circle><circle r="5" cx="1276.61" cy="51.36" fill="#8b9ad9"></circle><circle r="5" cx="1248.68" cy="394.89" fill="#8b9ad9"></circle><circle r="5" cx="1280.78" cy="550.84" fill="#8b9ad9"></circle><circle r="5" cx="1388.26" cy="-70.71" fill="#8b9ad9"></circle><circle r="5" cx="1392.03" cy="212.66" fill="#8b9ad9"></circle><circle r="5" cx="1453.43" cy="373" fill="#8b9ad9"></circle><circle r="5" cx="1547" cy="-103.93" fill="#8b9ad9"></circle><circle r="5" cx="1596.66" cy="347.91" fill="#8b9ad9"></circle><circle r="5" cx="1568.29" cy="525.21" fill="#8b9ad9"></circle><circle r="5" cx="1539.35" cy="639.53" fill="#8b9ad9"></circle></g><defs><mask id="SvgjsMask1006"><rect width="1440" height="560" fill="#ffffff"></rect></mask><radialGradient id="SvgjsRadialGradient1007"><stop stop-color="#ffffff" offset="0.1"></stop><stop stop-color="#1735b3" offset="0.2"></stop><stop stop-color="rgba(23, 53, 179, 0)" offset="1"></stop></radialGradient></defs></svg>